<svg width="200" height="200" viewBox="0 0 200 200">
    <defs>
        <linearGradient id="brain-gradient" x1="0%" y1="0%" x2="100%" y2="100%">
            <stop offset="0%" style="stop-color:#ff9a9e"/>
            <stop offset="100%" style="stop-color:#fad0c4"/>
        </linearGradient>
    </defs>
    <g fill="url(#brain-gradient)" stroke="#333" stroke-width="3">
        <path d="M100 20 C60 20 20 50 20 100 C20 150 60 180 100 180 C140 180 180 150 180 100 C180 50 140 20 100 20 Z"/>
        <path d="M100 60 C80 60 60 80 60 100 C60 120 80 140 100 140 C120 140 140 120 140 100 C140 80 120 60 100 60 Z"/>
        <path d="M60 100 Q80 80 100 100 Q120 120 140 100"/>
        <path d="M100 60 Q100 80 80 100 Q60 120 60 140"/>
        <path d="M100 60 Q100 80 120 100 Q140 120 140 140"/>
    </g>
    <text x="100" y="200" text-anchor="middle" font-family="Arial" font-size="16" fill="#333">Skills</text>
</svg>